<svg xmlns="http://www.w3.org/2000/svg" viewBox="0 0 176 176" role="img" aria-label="BigAsterisk monochrome mark">
<title>BigAsterisk monochrome mark</title>
  <g transform="translate(88 88)" fill="none" stroke-linecap="round">
    <g><line x1="0" y1="-20" x2="0" y2="-36" stroke="currentColor" stroke-width="8" opacity="1"/><line x1="0" y1="-42" x2="0" y2="-56" stroke="currentColor" stroke-width="10" opacity="0.72"/><line x1="0" y1="-62" x2="0" y2="-76" stroke="currentColor" stroke-width="12" opacity="0.48"/></g>
    <g transform="rotate(60)"><line x1="0" y1="-20" x2="0" y2="-36" stroke="currentColor" stroke-width="8" opacity="1"/><line x1="0" y1="-42" x2="0" y2="-56" stroke="currentColor" stroke-width="10" opacity="0.72"/><line x1="0" y1="-62" x2="0" y2="-76" stroke="currentColor" stroke-width="12" opacity="0.48"/></g>
    <g transform="rotate(120)"><line x1="0" y1="-20" x2="0" y2="-36" stroke="currentColor" stroke-width="8" opacity="1"/><line x1="0" y1="-42" x2="0" y2="-56" stroke="currentColor" stroke-width="10" opacity="0.72"/><line x1="0" y1="-62" x2="0" y2="-76" stroke="currentColor" stroke-width="12" opacity="0.48"/></g>
    <g transform="rotate(180)"><line x1="0" y1="-20" x2="0" y2="-36" stroke="currentColor" stroke-width="8" opacity="1"/><line x1="0" y1="-42" x2="0" y2="-56" stroke="currentColor" stroke-width="10" opacity="0.72"/><line x1="0" y1="-62" x2="0" y2="-76" stroke="currentColor" stroke-width="12" opacity="0.48"/></g>
    <g transform="rotate(240)"><line x1="0" y1="-20" x2="0" y2="-36" stroke="currentColor" stroke-width="8" opacity="1"/><line x1="0" y1="-42" x2="0" y2="-56" stroke="currentColor" stroke-width="10" opacity="0.72"/><line x1="0" y1="-62" x2="0" y2="-76" stroke="currentColor" stroke-width="12" opacity="0.48"/></g>
    <g transform="rotate(300)"><line x1="0" y1="-20" x2="0" y2="-36" stroke="currentColor" stroke-width="8" opacity="1"/><line x1="0" y1="-42" x2="0" y2="-56" stroke="currentColor" stroke-width="10" opacity="0.72"/><line x1="0" y1="-62" x2="0" y2="-76" stroke="currentColor" stroke-width="12" opacity="0.48"/></g>
    <circle cx="0" cy="0" r="9" fill="currentColor" stroke="none"/>
  </g>
</svg>
